<?xml version="1.0" encoding="UTF-8"?>
<!DOCTYPE svg PUBLIC "-//W3C//DTD SVG 1.1//EN" "http://www.w3.org/Graphics/SVG/1.1/DTD/svg11.dtd">
<svg xmlns="http://www.w3.org/2000/svg" version="1.1" width="96px" height="96px" style="shape-rendering:geometricPrecision; text-rendering:geometricPrecision; image-rendering:optimizeQuality; fill-rule:evenodd; clip-rule:evenodd" xmlns:xlink="http://www.w3.org/1999/xlink">
<g><path style="opacity:1" fill="#ca0f26" d="M 21.5,24.5 C 22.8333,24.5 24.1667,24.5 25.5,24.5C 25.5,27.8333 25.5,31.1667 25.5,34.5C 32.8333,34.5 40.1667,34.5 47.5,34.5C 47.5,35.8333 47.5,37.1667 47.5,38.5C 40.1667,38.5 32.8333,38.5 25.5,38.5C 25.5,41.8333 25.5,45.1667 25.5,48.5C 24.1667,48.5 22.8333,48.5 21.5,48.5C 21.5,45.1667 21.5,41.8333 21.5,38.5C 14.1667,38.5 6.83333,38.5 -0.5,38.5C -0.5,37.1667 -0.5,35.8333 -0.5,34.5C 6.83333,34.5 14.1667,34.5 21.5,34.5C 21.5,31.1667 21.5,27.8333 21.5,24.5 Z"/></g>
<g><path style="opacity:1" fill="#03247d" d="M 47.5,24.5 C 63.5,24.5 79.5,24.5 95.5,24.5C 95.5,40.8333 95.5,57.1667 95.5,73.5C 63.5,73.5 31.5,73.5 -0.5,73.5C -0.5,65.1667 -0.5,56.8333 -0.5,48.5C 0.166667,48.5 0.833333,48.5 1.5,48.5C 2.16667,48.5 2.83333,48.5 3.5,48.5C 4.77896,49.7152 5.77896,49.3818 6.5,47.5C 9.8992,47.3915 12.5659,46.0582 14.5,43.5C 15.4916,43.6716 16.1583,43.3382 16.5,42.5C 17.4959,42.5858 18.3292,42.2524 19,41.5C 19.1862,44.0356 19.6862,46.369 20.5,48.5C 20.8333,48.5 21.1667,48.5 21.5,48.5C 22.8333,48.5 24.1667,48.5 25.5,48.5C 25.8333,48.5 26.1667,48.5 26.5,48.5C 27.3138,46.369 27.8138,44.0356 28,41.5C 32.5806,43.8732 37.0806,46.3732 41.5,49C 43.3869,49.7796 45.0536,49.6129 46.5,48.5C 47.0431,48.44 47.3764,48.1067 47.5,47.5C 45.4494,44.81 42.7827,43.1433 39.5,42.5C 39.3893,41.8826 39.056,41.3826 38.5,41C 41.6946,40.8195 44.6946,40.3195 47.5,39.5C 47.5,39.1667 47.5,38.8333 47.5,38.5C 47.5,37.1667 47.5,35.8333 47.5,34.5C 44.992,32.7629 41.992,31.9296 38.5,32C 41.1863,30.6322 43.853,29.2989 46.5,28C 47.3366,26.9887 47.67,25.8221 47.5,24.5 Z"/></g>
<g><path style="opacity:1" fill="#021f7a" d="M -0.5,27.5 C 2.37767,29.1054 5.37767,30.4388 8.5,31.5C 5.7131,32.4767 2.7131,32.81 -0.5,32.5C -0.5,30.8333 -0.5,29.1667 -0.5,27.5 Z"/></g>
<g><path style="opacity:1" fill="#da5e5f" d="M -0.5,24.5 C -0.166667,24.5 0.166667,24.5 0.5,24.5C 4.94593,27.2258 9.6126,29.7258 14.5,32C 12.4546,32.4901 10.4546,32.3235 8.5,31.5C 5.37767,30.4388 2.37767,29.1054 -0.5,27.5C -0.5,26.5 -0.5,25.5 -0.5,24.5 Z"/></g>
<g><path style="opacity:1" fill="#a57091" d="M 72.5,33.5 C 71.209,33.2627 70.209,33.596 69.5,34.5C 68.9569,34.44 68.6236,34.1067 68.5,33.5C 69.7598,32.6184 70.9264,31.6184 72,30.5C 72.4828,31.448 72.6495,32.448 72.5,33.5 Z"/></g>
<g><path style="opacity:1" fill="#f4dce0" d="M 0.5,24.5 C 2.16667,24.5 3.83333,24.5 5.5,24.5C 9.61221,27.0591 13.9455,29.3924 18.5,31.5C 19.4742,29.2573 19.8076,26.924 19.5,24.5C 20.1667,24.5 20.8333,24.5 21.5,24.5C 21.5,27.8333 21.5,31.1667 21.5,34.5C 14.1667,34.5 6.83333,34.5 -0.5,34.5C -0.5,33.8333 -0.5,33.1667 -0.5,32.5C 2.7131,32.81 5.7131,32.4767 8.5,31.5C 10.4546,32.3235 12.4546,32.4901 14.5,32C 9.6126,29.7258 4.94593,27.2258 0.5,24.5 Z"/></g>
<g><path style="opacity:1" fill="#0f267e" d="M 5.5,24.5 C 10.1667,24.5 14.8333,24.5 19.5,24.5C 19.8076,26.924 19.4742,29.2573 18.5,31.5C 13.9455,29.3924 9.61221,27.0591 5.5,24.5 Z"/></g>
<g><path style="opacity:1" fill="#f1d9de" d="M 25.5,24.5 C 26.1667,24.5 26.8333,24.5 27.5,24.5C 26.9898,27.3878 27.6565,29.7211 29.5,31.5C 30.2506,32.5735 31.2506,32.7401 32.5,32C 37.3874,29.7258 42.0541,27.2258 46.5,24.5C 46.8333,24.5 47.1667,24.5 47.5,24.5C 47.67,25.8221 47.3366,26.9887 46.5,28C 43.853,29.2989 41.1863,30.6322 38.5,32C 41.992,31.9296 44.992,32.7629 47.5,34.5C 40.1667,34.5 32.8333,34.5 25.5,34.5C 25.5,31.1667 25.5,27.8333 25.5,24.5 Z"/></g>
<g><path style="opacity:1" fill="#d0b1c2" d="M 41.5,25.5 C 39.1515,27.341 36.4848,28.6743 33.5,29.5C 35.5792,27.127 38.2459,25.7936 41.5,25.5 Z"/></g>
<g><path style="opacity:1" fill="#d43b3e" d="M 41.5,24.5 C 43.1667,24.5 44.8333,24.5 46.5,24.5C 42.0541,27.2258 37.3874,29.7258 32.5,32C 31.2506,32.7401 30.2506,32.5735 29.5,31.5C 30.5137,30.3263 31.847,29.6596 33.5,29.5C 36.4848,28.6743 39.1515,27.341 41.5,25.5C 41.5,25.1667 41.5,24.8333 41.5,24.5 Z"/></g>
<g><path style="opacity:1" fill="#0f2980" d="M 27.5,24.5 C 32.1667,24.5 36.8333,24.5 41.5,24.5C 41.5,24.8333 41.5,25.1667 41.5,25.5C 38.2459,25.7936 35.5792,27.127 33.5,29.5C 31.847,29.6596 30.5137,30.3263 29.5,31.5C 27.6565,29.7211 26.9898,27.3878 27.5,24.5 Z"/></g>
<g><path style="opacity:1" fill="#e14247" d="M 69.5,34.5 C 70.209,33.596 71.209,33.2627 72.5,33.5C 73.1667,33.5 73.5,33.8333 73.5,34.5C 72.1667,35.8333 70.8333,35.8333 69.5,34.5 Z"/></g>
<g><path style="opacity:1" fill="#a389aa" d="M 69.5,34.5 C 70.8333,35.8333 72.1667,35.8333 73.5,34.5C 73.6495,35.552 73.4828,36.552 73,37.5C 72,36.1667 71,36.1667 70,37.5C 69.5172,36.552 69.3505,35.552 69.5,34.5 Z"/></g>
<g><path style="opacity:1" fill="#e27783" d="M -0.5,39.5 C -0.5,39.1667 -0.5,38.8333 -0.5,38.5C 6.83333,38.5 14.1667,38.5 21.5,38.5C 21.5,41.8333 21.5,45.1667 21.5,48.5C 21.1667,48.5 20.8333,48.5 20.5,48.5C 20.5,45.5 20.5,42.5 20.5,39.5C 13.5,39.5 6.5,39.5 -0.5,39.5 Z"/></g>
<g><path style="opacity:1" fill="#e37a85" d="M 47.5,38.5 C 47.5,38.8333 47.5,39.1667 47.5,39.5C 40.5,39.5 33.5,39.5 26.5,39.5C 26.5,42.5 26.5,45.5 26.5,48.5C 26.1667,48.5 25.8333,48.5 25.5,48.5C 25.5,45.1667 25.5,41.8333 25.5,38.5C 32.8333,38.5 40.1667,38.5 47.5,38.5 Z"/></g>
<g><path style="opacity:1" fill="#f7eaed" d="M -0.5,40.5 C -0.5,40.1667 -0.5,39.8333 -0.5,39.5C 6.5,39.5 13.5,39.5 20.5,39.5C 20.5,42.5 20.5,45.5 20.5,48.5C 19.6862,46.369 19.1862,44.0356 19,41.5C 18.3292,42.2524 17.4959,42.5858 16.5,42.5C 15.7494,41.4265 14.7494,41.2599 13.5,42C 9.27843,43.9409 5.27843,46.1076 1.5,48.5C 0.833333,48.5 0.166667,48.5 -0.5,48.5C -0.5,47.5 -0.5,46.5 -0.5,45.5C 2.16667,44.5 4.83333,43.5 7.5,42.5C 8.28913,42.2172 8.9558,41.7172 9.5,41C 6.18323,40.5017 2.8499,40.335 -0.5,40.5 Z"/></g>
<g><path style="opacity:1" fill="#edecf2" d="M 47.5,39.5 C 44.6946,40.3195 41.6946,40.8195 38.5,41C 39.056,41.3826 39.3893,41.8826 39.5,42.5C 37.6336,41.9862 35.8003,41.3195 34,40.5C 32.2785,40.6107 32.1118,41.1107 33.5,42C 37.8599,44.1799 42.1932,46.3466 46.5,48.5C 45.0536,49.6129 43.3869,49.7796 41.5,49C 37.0806,46.3732 32.5806,43.8732 28,41.5C 27.8138,44.0356 27.3138,46.369 26.5,48.5C 26.5,45.5 26.5,42.5 26.5,39.5C 33.5,39.5 40.5,39.5 47.5,39.5 Z"/></g>
<g><path style="opacity:1" fill="#6278b0" d="M -0.5,41.5 C -0.5,41.1667 -0.5,40.8333 -0.5,40.5C 2.8499,40.335 6.18323,40.5017 9.5,41C 8.9558,41.7172 8.28913,42.2172 7.5,42.5C 5.0521,41.5269 2.38544,41.1936 -0.5,41.5 Z"/></g>
<g><path style="opacity:1" fill="#05207a" d="M -0.5,41.5 C 2.38544,41.1936 5.0521,41.5269 7.5,42.5C 4.83333,43.5 2.16667,44.5 -0.5,45.5C -0.5,44.1667 -0.5,42.8333 -0.5,41.5 Z"/></g>
<g><path style="opacity:1" fill="#d67e8b" d="M 78.5,42.5 C 79.9464,41.3871 81.6131,41.2204 83.5,42C 81.9981,45.0857 80.3315,45.2524 78.5,42.5 Z"/></g>
<g><path style="opacity:1" fill="#6a66a1" d="M 62.5,45.5 C 61.791,44.596 60.791,44.2627 59.5,44.5C 59.3691,43.6236 59.7025,42.9569 60.5,42.5C 61.7946,43.0983 63.1279,43.5983 64.5,44C 63.9558,44.7172 63.2891,45.2172 62.5,45.5 Z"/></g>
<g><path style="opacity:1" fill="#d76164" d="M 39.5,42.5 C 42.7827,43.1433 45.4494,44.81 47.5,47.5C 47.3764,48.1067 47.0431,48.44 46.5,48.5C 42.1932,46.3466 37.8599,44.1799 33.5,42C 32.1118,41.1107 32.2785,40.6107 34,40.5C 35.8003,41.3195 37.6336,41.9862 39.5,42.5 Z"/></g>
<g><path style="opacity:1" fill="#8a89b9" d="M 14.5,43.5 C 12.5659,46.0582 9.8992,47.3915 6.5,47.5C 8.89669,45.8052 11.5634,44.4718 14.5,43.5 Z"/></g>
<g><path style="opacity:1" fill="#d57884" d="M 59.5,44.5 C 60.791,44.2627 61.791,44.596 62.5,45.5C 62.6495,46.552 62.4828,47.552 62,48.5C 61,47.1667 60,47.1667 59,48.5C 58.6905,47.2341 58.1905,46.0674 57.5,45C 58.0944,44.5357 58.7611,44.369 59.5,44.5 Z"/></g>
<g><path style="opacity:1" fill="#d83d40" d="M 16.5,42.5 C 16.1583,43.3382 15.4916,43.6716 14.5,43.5C 11.5634,44.4718 8.89669,45.8052 6.5,47.5C 5.39105,47.5569 4.39105,47.8902 3.5,48.5C 2.83333,48.5 2.16667,48.5 1.5,48.5C 5.27843,46.1076 9.27843,43.9409 13.5,42C 14.7494,41.2599 15.7494,41.4265 16.5,42.5 Z"/></g>
<g><path style="opacity:1" fill="#989bc1" d="M 6.5,47.5 C 5.77896,49.3818 4.77896,49.7152 3.5,48.5C 4.39105,47.8902 5.39105,47.5569 6.5,47.5 Z"/></g>
<g><path style="opacity:1" fill="#8a76a3" d="M 73.5,63.5 C 72.791,62.596 71.791,62.2627 70.5,62.5C 70.4614,61.2438 70.9614,60.2438 72,59.5C 72.8996,60.7702 74.0663,61.7702 75.5,62.5C 75.0431,63.2975 74.3764,63.6309 73.5,63.5 Z"/></g>
<g><path style="opacity:1" fill="#db656d" d="M 70.5,62.5 C 71.791,62.2627 72.791,62.596 73.5,63.5C 73.6495,64.552 73.4828,65.552 73,66.5C 72,65.1667 71,65.1667 70,66.5C 69.6905,65.2341 69.1905,64.0674 68.5,63C 69.0944,62.5357 69.7611,62.369 70.5,62.5 Z"/></g>
</svg>
