<?xml version="1.0" encoding="UTF-8"?>
<!DOCTYPE svg PUBLIC "-//W3C//DTD SVG 1.1//EN" "http://www.w3.org/Graphics/SVG/1.1/DTD/svg11.dtd">
<svg xmlns="http://www.w3.org/2000/svg" version="1.1" width="96px" height="96px" style="shape-rendering:geometricPrecision; text-rendering:geometricPrecision; image-rendering:optimizeQuality; fill-rule:evenodd; clip-rule:evenodd" xmlns:xlink="http://www.w3.org/1999/xlink">
<g><path style="opacity:1" fill="#ff0000" d="M -0.5,23.5 C 7.5,23.5 15.5,23.5 23.5,23.5C 23.5,39.5 23.5,55.5 23.5,71.5C 15.5,71.5 7.5,71.5 -0.5,71.5C -0.5,55.5 -0.5,39.5 -0.5,23.5 Z"/></g>
<g><path style="opacity:1" fill="#fffafa" d="M 23.5,23.5 C 39.5,23.5 55.5,23.5 71.5,23.5C 71.5,39.5 71.5,55.5 71.5,71.5C 55.5,71.5 39.5,71.5 23.5,71.5C 23.5,55.5 23.5,39.5 23.5,23.5 Z"/></g>
<g><path style="opacity:1" fill="#ff0000" d="M 71.5,23.5 C 79.5,23.5 87.5,23.5 95.5,23.5C 95.5,39.5 95.5,55.5 95.5,71.5C 87.5,71.5 79.5,71.5 71.5,71.5C 71.5,55.5 71.5,39.5 71.5,23.5 Z"/></g>
<g><path style="opacity:1" fill="#ff160e" d="M 61.5,41.5 C 62.791,41.2627 63.791,41.596 64.5,42.5C 64.3184,44.5914 64.6518,46.5914 65.5,48.5C 63.1918,50.4707 60.8585,52.4707 58.5,54.5C 57.5481,56.0453 57.2148,57.712 57.5,59.5C 54.5176,59.0371 51.5176,58.7038 48.5,58.5C 47.8333,58.5 47.1667,58.5 46.5,58.5C 43.4824,58.7038 40.4824,59.0371 37.5,59.5C 37.6567,58.1266 37.49,56.7932 37,55.5C 34.5536,53.0414 32.0536,50.7081 29.5,48.5C 30.3742,46.2534 30.7076,43.9201 30.5,41.5C 32.8211,41.7711 34.8211,41.1045 36.5,39.5C 38.1487,40.6477 39.6487,41.981 41,43.5C 41.3685,40.123 41.3685,36.7897 41,33.5C 42.1827,34.731 43.3493,34.731 44.5,33.5C 46.5,26.8333 48.5,26.8333 50.5,33.5C 51.6507,34.731 52.8173,34.731 54,33.5C 53.6315,36.7897 53.6315,40.123 54,43.5C 55.3333,42.1667 56.6667,40.8333 58,39.5C 58.8159,40.8228 59.9826,41.4894 61.5,41.5 Z"/></g>
<g><path style="opacity:1" fill="#ff8a89" d="M 61.5,41.5 C 62.7082,40.218 64.0416,40.218 65.5,41.5C 65.3764,42.1067 65.0431,42.44 64.5,42.5C 63.791,41.596 62.791,41.2627 61.5,41.5 Z"/></g>
<g><path style="opacity:1" fill="#ff7170" d="M 46.5,58.5 C 47.1667,58.5 47.8333,58.5 48.5,58.5C 47.8333,71.8333 47.1667,71.8333 46.5,58.5 Z"/></g>
</svg>
