<?xml version="1.0" encoding="UTF-8"?>
<!DOCTYPE svg PUBLIC "-//W3C//DTD SVG 1.1//EN" "http://www.w3.org/Graphics/SVG/1.1/DTD/svg11.dtd">
<svg xmlns="http://www.w3.org/2000/svg" version="1.1" width="96px" height="96px" style="shape-rendering:geometricPrecision; text-rendering:geometricPrecision; image-rendering:optimizeQuality; fill-rule:evenodd; clip-rule:evenodd" xmlns:xlink="http://www.w3.org/1999/xlink">
<g><path style="opacity:1" fill="#d52b1e" d="M 15.5,15.5 C 36.8333,15.5 58.1667,15.5 79.5,15.5C 79.5,36.8333 79.5,58.1667 79.5,79.5C 58.1667,79.5 36.8333,79.5 15.5,79.5C 15.5,58.1667 15.5,36.8333 15.5,15.5 Z"/></g>
<g><path style="opacity:1" fill="#fefdfd" d="M 41.5,27.5 C 45.5,27.5 49.5,27.5 53.5,27.5C 53.5,32.1667 53.5,36.8333 53.5,41.5C 58.1667,41.5 62.8333,41.5 67.5,41.5C 67.5,45.5 67.5,49.5 67.5,53.5C 62.8333,53.5 58.1667,53.5 53.5,53.5C 53.5,58.1667 53.5,62.8333 53.5,67.5C 49.5,67.5 45.5,67.5 41.5,67.5C 41.5,62.8333 41.5,58.1667 41.5,53.5C 36.8333,53.5 32.1667,53.5 27.5,53.5C 27.5,49.5 27.5,45.5 27.5,41.5C 32.1667,41.5 36.8333,41.5 41.5,41.5C 41.5,36.8333 41.5,32.1667 41.5,27.5 Z"/></g>
</svg>
