<?xml version="1.0" encoding="UTF-8"?>
<!DOCTYPE svg PUBLIC "-//W3C//DTD SVG 1.1//EN" "http://www.w3.org/Graphics/SVG/1.1/DTD/svg11.dtd">
<svg xmlns="http://www.w3.org/2000/svg" version="1.1" width="96px" height="96px" style="shape-rendering:geometricPrecision; text-rendering:geometricPrecision; image-rendering:optimizeQuality; fill-rule:evenodd; clip-rule:evenodd" xmlns:xlink="http://www.w3.org/1999/xlink">
<g><path style="opacity:1" fill="#f7f3f6" d="M 0.5,23.5 C 4.16667,23.5 7.83333,23.5 11.5,23.5C 19.9446,28.8732 28.9446,33.5399 38.5,37.5C 39.4933,32.8804 39.8266,28.2137 39.5,23.5C 40.5,23.5 41.5,23.5 42.5,23.5C 42.5,29.8333 42.5,36.1667 42.5,42.5C 28.1667,42.5 13.8333,42.5 -0.5,42.5C -0.5,41.5 -0.5,40.5 -0.5,39.5C 6.17499,39.6663 12.8417,39.4996 19.5,39C 12.9328,35.549 6.2661,32.3823 -0.5,29.5C -0.5,28.8333 -0.5,28.1667 -0.5,27.5C 7.59985,31.0493 15.5998,34.8826 23.5,39C 25.8333,39.6667 28.1667,39.6667 30.5,39C 20.2819,34.059 10.2819,28.8923 0.5,23.5 Z"/></g>
<g><path style="opacity:1" fill="#d01e31" d="M 42.5,23.5 C 45.8333,23.5 49.1667,23.5 52.5,23.5C 52.5,29.8333 52.5,36.1667 52.5,42.5C 66.8333,42.5 81.1667,42.5 95.5,42.5C 95.5,45.8333 95.5,49.1667 95.5,52.5C 81.1667,52.5 66.8333,52.5 52.5,52.5C 52.5,58.8333 52.5,65.1667 52.5,71.5C 49.1667,71.5 45.8333,71.5 42.5,71.5C 42.5,65.1667 42.5,58.8333 42.5,52.5C 28.1667,52.5 13.8333,52.5 -0.5,52.5C -0.5,49.1667 -0.5,45.8333 -0.5,42.5C 13.8333,42.5 28.1667,42.5 42.5,42.5C 42.5,36.1667 42.5,29.8333 42.5,23.5 Z"/></g>
<g><path style="opacity:1" fill="#faf8f9" d="M 52.5,23.5 C 53.5,23.5 54.5,23.5 55.5,23.5C 55.5,28.1667 55.5,32.8333 55.5,37.5C 55.8333,38.5 56.5,39.1667 57.5,39.5C 59.8568,39.6633 62.1902,39.4966 64.5,39C 74.5461,34.3136 84.2128,29.1469 93.5,23.5C 94.1667,23.5 94.8333,23.5 95.5,23.5C 95.5,25.5 95.5,27.5 95.5,29.5C 88.4824,32.5643 81.4824,35.7309 74.5,39C 81.4921,39.4996 88.4921,39.6663 95.5,39.5C 95.5,40.5 95.5,41.5 95.5,42.5C 81.1667,42.5 66.8333,42.5 52.5,42.5C 52.5,36.1667 52.5,29.8333 52.5,23.5 Z"/></g>
<g><path style="opacity:1" fill="#d32c3b" d="M 87.5,23.5 C 89.5,23.5 91.5,23.5 93.5,23.5C 84.2128,29.1469 74.5461,34.3136 64.5,39C 62.1902,39.4966 59.8568,39.6633 57.5,39.5C 67.3743,33.9821 77.3743,28.6488 87.5,23.5 Z"/></g>
<g><path style="opacity:1" fill="#d32c3b" d="M -0.5,23.5 C -0.166667,23.5 0.166667,23.5 0.5,23.5C 10.2819,28.8923 20.2819,34.059 30.5,39C 28.1667,39.6667 25.8333,39.6667 23.5,39C 15.5998,34.8826 7.59985,31.0493 -0.5,27.5C -0.5,26.1667 -0.5,24.8333 -0.5,23.5 Z"/></g>
<g><path style="opacity:1" fill="#0a287f" d="M 11.5,23.5 C 20.8333,23.5 30.1667,23.5 39.5,23.5C 39.8266,28.2137 39.4933,32.8804 38.5,37.5C 28.9446,33.5399 19.9446,28.8732 11.5,23.5 Z"/></g>
<g><path style="opacity:1" fill="#06267e" d="M 55.5,23.5 C 64.5,23.5 73.5,23.5 82.5,23.5C 74.0105,28.9132 65.0105,33.5799 55.5,37.5C 55.5,32.8333 55.5,28.1667 55.5,23.5 Z"/></g>
<g><path style="opacity:1" fill="#0d2980" d="M 95.5,29.5 C 95.5,32.8333 95.5,36.1667 95.5,39.5C 88.4921,39.6663 81.4921,39.4996 74.5,39C 81.4824,35.7309 88.4824,32.5643 95.5,29.5 Z"/></g>
<g><path style="opacity:1" fill="#06277e" d="M -0.5,29.5 C 6.2661,32.3823 12.9328,35.549 19.5,39C 12.8417,39.4996 6.17499,39.6663 -0.5,39.5C -0.5,36.1667 -0.5,32.8333 -0.5,29.5 Z"/></g>
<g><path style="opacity:1" fill="#e0cfdb" d="M 82.5,23.5 C 84.1667,23.5 85.8333,23.5 87.5,23.5C 77.3743,28.6488 67.3743,33.9821 57.5,39.5C 56.5,39.1667 55.8333,38.5 55.5,37.5C 65.0105,33.5799 74.0105,28.9132 82.5,23.5 Z"/></g>
<g><path style="opacity:1" fill="#faf7f9" d="M -0.5,52.5 C 13.8333,52.5 28.1667,52.5 42.5,52.5C 42.5,58.8333 42.5,65.1667 42.5,71.5C 41.5,71.5 40.5,71.5 39.5,71.5C 39.5,66.8333 39.5,62.1667 39.5,57.5C 39.1667,56.5 38.5,55.8333 37.5,55.5C 34.059,55.3011 30.7256,55.8011 27.5,57C 18.4067,61.8766 9.4067,66.71 0.5,71.5C 0.166667,71.5 -0.166667,71.5 -0.5,71.5C -0.5,69.5 -0.5,67.5 -0.5,65.5C 6.2661,62.6177 12.9328,59.451 19.5,56C 12.8417,55.5004 6.17499,55.3337 -0.5,55.5C -0.5,54.5 -0.5,53.5 -0.5,52.5 Z"/></g>
<g><path style="opacity:1" fill="#f6f2f5" d="M 95.5,52.5 C 95.5,53.5 95.5,54.5 95.5,55.5C 88.825,55.3337 82.1583,55.5004 75.5,56C 82.0672,59.451 88.7339,62.6177 95.5,65.5C 95.5,66.1667 95.5,66.8333 95.5,67.5C 87.4002,63.9507 79.4002,60.1174 71.5,56C 69.1667,55.3333 66.8333,55.3333 64.5,56C 74.7181,60.941 84.7181,66.1077 94.5,71.5C 90.8333,71.5 87.1667,71.5 83.5,71.5C 74.7183,66.6077 65.7183,61.941 56.5,57.5C 55.5067,62.1196 55.1734,66.7863 55.5,71.5C 54.5,71.5 53.5,71.5 52.5,71.5C 52.5,65.1667 52.5,58.8333 52.5,52.5C 66.8333,52.5 81.1667,52.5 95.5,52.5 Z"/></g>
<g><path style="opacity:1" fill="#0a287f" d="M -0.5,55.5 C 6.17499,55.3337 12.8417,55.5004 19.5,56C 12.9328,59.451 6.2661,62.6177 -0.5,65.5C -0.5,62.1667 -0.5,58.8333 -0.5,55.5 Z"/></g>
<g><path style="opacity:1" fill="#d32d3b" d="M 37.5,55.5 C 27.5,60.8333 17.5,66.1667 7.5,71.5C 5.16667,71.5 2.83333,71.5 0.5,71.5C 9.4067,66.71 18.4067,61.8766 27.5,57C 30.7256,55.8011 34.059,55.3011 37.5,55.5 Z"/></g>
<g><path style="opacity:1" fill="#d22a3a" d="M 95.5,67.5 C 95.5,68.8333 95.5,70.1667 95.5,71.5C 95.1667,71.5 94.8333,71.5 94.5,71.5C 84.7181,66.1077 74.7181,60.941 64.5,56C 66.8333,55.3333 69.1667,55.3333 71.5,56C 79.4002,60.1174 87.4002,63.9507 95.5,67.5 Z"/></g>
<g><path style="opacity:1" fill="#08277f" d="M 95.5,55.5 C 95.5,58.8333 95.5,62.1667 95.5,65.5C 88.7339,62.6177 82.0672,59.451 75.5,56C 82.1583,55.5004 88.825,55.3337 95.5,55.5 Z"/></g>
<g><path style="opacity:1" fill="#07277e" d="M 39.5,57.5 C 39.5,62.1667 39.5,66.8333 39.5,71.5C 30.1667,71.5 20.8333,71.5 11.5,71.5C 20.364,65.8797 29.6974,61.213 39.5,57.5 Z"/></g>
<g><path style="opacity:1" fill="#04267e" d="M 83.5,71.5 C 74.1667,71.5 64.8333,71.5 55.5,71.5C 55.1734,66.7863 55.5067,62.1196 56.5,57.5C 65.7183,61.941 74.7183,66.6077 83.5,71.5 Z"/></g>
<g><path style="opacity:1" fill="#e0d2de" d="M 37.5,55.5 C 38.5,55.8333 39.1667,56.5 39.5,57.5C 29.6974,61.213 20.364,65.8797 11.5,71.5C 10.1667,71.5 8.83333,71.5 7.5,71.5C 17.5,66.1667 27.5,60.8333 37.5,55.5 Z"/></g>
</svg>
