<?xml version="1.0" encoding="UTF-8"?>
<!DOCTYPE svg PUBLIC "-//W3C//DTD SVG 1.1//EN" "http://www.w3.org/Graphics/SVG/1.1/DTD/svg11.dtd">
<svg xmlns="http://www.w3.org/2000/svg" version="1.1" width="96px" height="96px" style="shape-rendering:geometricPrecision; text-rendering:geometricPrecision; image-rendering:optimizeQuality; fill-rule:evenodd; clip-rule:evenodd" xmlns:xlink="http://www.w3.org/1999/xlink">
<g><path style="opacity:1" fill="#fdfcfc" d="M -0.5,15.5 C 31.5,15.5 63.5,15.5 95.5,15.5C 95.5,36.8333 95.5,58.1667 95.5,79.5C 63.5,79.5 31.5,79.5 -0.5,79.5C -0.5,58.1667 -0.5,36.8333 -0.5,15.5 Z"/></g>
<g><path style="opacity:1" fill="#131313" d="M 70.5,22.5 C 73.5616,23.2678 75.2283,25.2678 75.5,28.5C 72.4384,27.7322 70.7717,25.7322 70.5,22.5 Z"/></g>
<g><path style="opacity:1" fill="#1b1b1b" d="M 27.5,24.5 C 28.0431,24.56 28.3764,24.8933 28.5,25.5C 25.7467,30.0076 22.7467,34.3409 19.5,38.5C 18.8933,38.3764 18.56,38.0431 18.5,37.5C 20.3961,32.2925 23.3961,27.9592 27.5,24.5 Z"/></g>
<g><path style="opacity:1" fill="#181818" d="M 67.5,24.5 C 71.6039,27.9592 74.6039,32.2925 76.5,37.5C 76.1583,38.3382 75.4916,38.6716 74.5,38.5C 71.6339,34.1012 69.3006,29.4345 67.5,24.5 Z"/></g>
<g><path style="opacity:1" fill="#171717" d="M 24.5,22.5 C 22.6039,27.7075 19.6039,32.0408 15.5,35.5C 14.9569,35.44 14.6236,35.1067 14.5,34.5C 16.8635,31.3015 19.0302,27.9681 21,24.5C 21.8159,23.1772 22.9826,22.5106 24.5,22.5 Z"/></g>
<g><path style="opacity:1" fill="#1b1b1b" d="M 29.5,26.5 C 30.3764,26.3691 31.0431,26.7025 31.5,27.5C 29.2271,32.3937 26.2271,36.727 22.5,40.5C 21.4173,39.635 21.2506,38.635 22,37.5C 24.51,33.8045 27.01,30.1379 29.5,26.5 Z"/></g>
<g><path style="opacity:1" fill="#1b1b1b" d="M 65.5,26.5 C 67.3122,28.4605 68.3122,30.7939 68.5,33.5C 66.1872,32.1751 64.5206,30.1751 63.5,27.5C 63.9569,26.7025 64.6236,26.3691 65.5,26.5 Z"/></g>
<g><path style="opacity:1" fill="#bbbbbb" d="M 24.5,22.5 C 25.7095,22.9321 26.7095,23.5987 27.5,24.5C 23.3961,27.9592 20.3961,32.2925 18.5,37.5C 17.2905,37.0679 16.2905,36.4013 15.5,35.5C 19.6039,32.0408 22.6039,27.7075 24.5,22.5 Z"/></g>
<g><path style="opacity:1" fill="#b5b5b5" d="M 70.5,22.5 C 70.7717,25.7322 72.4384,27.7322 75.5,28.5C 76.4916,28.3284 77.1583,28.6618 77.5,29.5C 76.5028,29.4701 75.8361,29.9701 75.5,31C 76.2781,33.0991 77.6114,34.5991 79.5,35.5C 78.7095,36.4013 77.7095,37.0679 76.5,37.5C 74.6039,32.2925 71.6039,27.9592 67.5,24.5C 68.2905,23.5987 69.2905,22.9321 70.5,22.5 Z"/></g>
<g><path style="opacity:1" fill="#181818" d="M 77.5,29.5 C 78.2371,31.3046 79.2371,32.9713 80.5,34.5C 80.3764,35.1067 80.0431,35.44 79.5,35.5C 77.6114,34.5991 76.2781,33.0991 75.5,31C 75.8361,29.9701 76.5028,29.4701 77.5,29.5 Z"/></g>
<g><path style="opacity:1" fill="#c61433" d="M 62.5,50.5 C 56.9923,41.3414 50.9923,41.1748 44.5,50C 36.373,51.9417 32.7064,48.775 33.5,40.5C 38.1556,31.8521 45.1556,29.3521 54.5,33C 61.7389,36.9641 64.4056,42.7974 62.5,50.5 Z"/></g>
<g><path style="opacity:1" fill="#c6c6c6" d="M 67.5,24.5 C 69.3006,29.4345 71.6339,34.1012 74.5,38.5C 74.5,39.1667 74.1667,39.5 73.5,39.5C 72.7529,36.6385 71.0862,34.6385 68.5,33.5C 68.3122,30.7939 67.3122,28.4605 65.5,26.5C 66.1667,25.8333 66.8333,25.1667 67.5,24.5 Z"/></g>
<g><path style="opacity:1" fill="#1f1f1f" d="M 68.5,33.5 C 71.0862,34.6385 72.7529,36.6385 73.5,39.5C 72.8106,40.7736 71.9772,40.7736 71,39.5C 69.4412,37.7834 68.6079,35.7834 68.5,33.5 Z"/></g>
<g><path style="opacity:1" fill="#1a3576" d="M 33.5,40.5 C 32.7064,48.775 36.373,51.9417 44.5,50C 50.9923,41.1748 56.9923,41.3414 62.5,50.5C 62.0337,55.8093 59.367,59.6427 54.5,62C 41.4058,65.7859 33.7391,60.9525 31.5,47.5C 31.4404,44.8446 32.1071,42.5112 33.5,40.5 Z"/></g>
<g><path style="opacity:1" fill="#212121" d="M 73.5,55.5 C 72.7529,58.3615 71.0862,60.3615 68.5,61.5C 68.542,58.4148 69.8753,56.0814 72.5,54.5C 73.1067,54.6236 73.44,54.9569 73.5,55.5 Z"/></g>
<g><path style="opacity:1" fill="#191919" d="M 20.5,56.5 C 21.4412,58.4664 22.4412,60.4664 23.5,62.5C 23.1667,62.8333 22.8333,63.1667 22.5,63.5C 20.1671,62.1678 18.8337,60.1678 18.5,57.5C 18.8417,56.6618 19.5084,56.3284 20.5,56.5 Z"/></g>
<g><path style="opacity:1" fill="#202020" d="M 75.5,56.5 C 76.1667,56.5 76.5,56.8333 76.5,57.5C 76.3379,60.4598 75.0046,62.2931 72.5,63C 72.1667,62.6667 71.8333,62.3333 71.5,62C 72.6966,59.9847 74.0299,58.1513 75.5,56.5 Z"/></g>
<g><path style="opacity:1" fill="#191919" d="M 15.5,59.5 C 19.6039,62.9592 22.6039,67.2925 24.5,72.5C 22.9826,72.4894 21.8159,71.8228 21,70.5C 19.2481,67.328 17.2481,64.328 15,61.5C 14.3083,60.5632 14.475,59.8966 15.5,59.5 Z"/></g>
<g><path style="opacity:1" fill="#1a1a1a" d="M 79.5,59.5 C 80.0431,59.56 80.3764,59.8933 80.5,60.5C 79.2371,62.0287 78.2371,63.6954 77.5,65.5C 76.5028,65.5299 75.8361,65.0299 75.5,64C 76.2781,61.9009 77.6114,60.4009 79.5,59.5 Z"/></g>
<g><path style="opacity:1" fill="#1b1b1b" d="M 29.5,68.5 C 26.5715,64.306 23.9048,59.9726 21.5,55.5C 21.8966,54.475 22.5632,54.3083 23.5,55C 26.5409,58.9123 29.2076,63.0789 31.5,67.5C 31.0431,68.2975 30.3764,68.6309 29.5,68.5 Z"/></g>
<g><path style="opacity:1" fill="#1e1e1e" d="M 68.5,61.5 C 68.6107,62.1174 68.944,62.6174 69.5,63C 68.035,64.7742 66.7017,66.6075 65.5,68.5C 64.6236,68.6309 63.9569,68.2975 63.5,67.5C 64.5206,64.8249 66.1872,62.8249 68.5,61.5 Z"/></g>
<g><path style="opacity:1" fill="#bcbcbc" d="M 21.5,55.5 C 23.9048,59.9726 26.5715,64.306 29.5,68.5C 29.1667,68.5 28.8333,68.5 28.5,68.5C 27.1634,67.6851 26.1634,66.5185 25.5,65C 24.5,64.3333 23.5,64.3333 22.5,65C 23.7147,67.3754 25.3814,69.2088 27.5,70.5C 26.7095,71.4013 25.7095,72.0679 24.5,72.5C 22.6039,67.2925 19.6039,62.9592 15.5,59.5C 16.2905,58.5987 17.2905,57.9321 18.5,57.5C 18.8337,60.1678 20.1671,62.1678 22.5,63.5C 22.8333,63.1667 23.1667,62.8333 23.5,62.5C 22.4412,60.4664 21.4412,58.4664 20.5,56.5C 20.5,55.8333 20.8333,55.5 21.5,55.5 Z"/></g>
<g><path style="opacity:1" fill="#1d1d1d" d="M 28.5,68.5 C 28.6716,69.4916 28.3382,70.1583 27.5,70.5C 25.3814,69.2088 23.7147,67.3754 22.5,65C 23.5,64.3333 24.5,64.3333 25.5,65C 26.1634,66.5185 27.1634,67.6851 28.5,68.5 Z"/></g>
<g><path style="opacity:1" fill="#1d1d1d" d="M 67.5,70.5 C 66.6618,70.1583 66.3284,69.4916 66.5,68.5C 67.8366,67.6851 68.8366,66.5185 69.5,65C 70.5,64.3333 71.5,64.3333 72.5,65C 71.2853,67.3754 69.6186,69.2088 67.5,70.5 Z"/></g>
<g><path style="opacity:1" fill="#c2c2c2" d="M 73.5,55.5 C 74.4916,55.3284 75.1583,55.6618 75.5,56.5C 74.0299,58.1513 72.6966,59.9847 71.5,62C 71.8333,62.3333 72.1667,62.6667 72.5,63C 75.0046,62.2931 76.3379,60.4598 76.5,57.5C 77.7095,57.9321 78.7095,58.5987 79.5,59.5C 77.6114,60.4009 76.2781,61.9009 75.5,64C 75.8361,65.0299 76.5028,65.5299 77.5,65.5C 77.1583,66.3382 76.4916,66.6716 75.5,66.5C 72.4589,67.1991 70.7922,69.1991 70.5,72.5C 69.2905,72.0679 68.2905,71.4013 67.5,70.5C 69.6186,69.2088 71.2853,67.3754 72.5,65C 71.5,64.3333 70.5,64.3333 69.5,65C 68.8366,66.5185 67.8366,67.6851 66.5,68.5C 66.1667,68.5 65.8333,68.5 65.5,68.5C 66.7017,66.6075 68.035,64.7742 69.5,63C 68.944,62.6174 68.6107,62.1174 68.5,61.5C 71.0862,60.3615 72.7529,58.3615 73.5,55.5 Z"/></g>
<g><path style="opacity:1" fill="#161616" d="M 75.5,66.5 C 75.2283,69.7322 73.5616,71.7322 70.5,72.5C 70.7922,69.1991 72.4589,67.1991 75.5,66.5 Z"/></g>
</svg>
