<?xml version="1.0" encoding="UTF-8"?>
<!DOCTYPE svg PUBLIC "-//W3C//DTD SVG 1.1//EN" "http://www.w3.org/Graphics/SVG/1.1/DTD/svg11.dtd">
<svg xmlns="http://www.w3.org/2000/svg" version="1.1" width="96px" height="96px" style="shape-rendering:geometricPrecision; text-rendering:geometricPrecision; image-rendering:optimizeQuality; fill-rule:evenodd; clip-rule:evenodd" xmlns:xlink="http://www.w3.org/1999/xlink">
<g><path style="opacity:1" fill="#de290f" d="M -0.5,15.5 C 31.5,15.5 63.5,15.5 95.5,15.5C 95.5,36.8333 95.5,58.1667 95.5,79.5C 63.5,79.5 31.5,79.5 -0.5,79.5C -0.5,58.1667 -0.5,36.8333 -0.5,15.5 Z"/></g>
<g><path style="opacity:1" fill="#f7b502" d="M 29.5,20.5 C 33.2231,20.3577 34.0564,21.691 32,24.5C 30.2942,23.6921 29.4609,22.3588 29.5,20.5 Z"/></g>
<g><path style="opacity:1" fill="#fcd100" d="M 14.5,23.5 C 16.1852,24.1837 17.1852,25.517 17.5,27.5C 19.4233,28.3078 21.4233,28.8078 23.5,29C 21.8783,30.2951 20.545,31.7951 19.5,33.5C 20.228,35.1547 20.3947,36.8214 20,38.5C 17,34.5 14,34.5 11,38.5C 10.6053,36.8214 10.772,35.1547 11.5,33.5C 10.455,31.7951 9.12167,30.2951 7.5,29C 9.5767,28.8078 11.5767,28.3078 13.5,27.5C 14.2458,26.2638 14.5792,24.9305 14.5,23.5 Z"/></g>
<g><path style="opacity:1" fill="#f8bb02" d="M 36.5,25.5 C 39.5689,26.4959 40.0689,28.1626 38,30.5C 36.7308,29.0953 36.2308,27.4286 36.5,25.5 Z"/></g>
<g><path style="opacity:1" fill="#f9bf01" d="M 37.5,35.5 C 41.2494,36.2768 41.4161,37.6101 38,39.5C 35.2643,38.0674 35.0977,36.7341 37.5,35.5 Z"/></g>
<g><path style="opacity:1" fill="#f8ba02" d="M 29.5,42.5 C 33.2231,42.3577 34.0564,43.691 32,46.5C 30.2942,45.6921 29.4609,44.3588 29.5,42.5 Z"/></g>
</svg>
