<?xml version="1.0" encoding="UTF-8"?>
<!DOCTYPE svg PUBLIC "-//W3C//DTD SVG 1.1//EN" "http://www.w3.org/Graphics/SVG/1.1/DTD/svg11.dtd">
<svg xmlns="http://www.w3.org/2000/svg" version="1.1" width="96px" height="96px" style="shape-rendering:geometricPrecision; text-rendering:geometricPrecision; image-rendering:optimizeQuality; fill-rule:evenodd; clip-rule:evenodd" xmlns:xlink="http://www.w3.org/1999/xlink">
<g><path style="opacity:1" fill="#de2910" d="M -0.5,15.5 C 31.5,15.5 63.5,15.5 95.5,15.5C 95.5,36.8333 95.5,58.1667 95.5,79.5C 63.5,79.5 31.5,79.5 -0.5,79.5C -0.5,58.1667 -0.5,36.8333 -0.5,15.5 Z"/></g>
<g><path style="opacity:1" fill="#fce7e4" d="M 51.5,37.5 C 50.5188,39.3092 49.0188,40.6426 47,41.5C 46.5266,47.764 44.8599,48.0973 42,42.5C 41.5065,40.8659 41.3398,39.1992 41.5,37.5C 41.9743,32.0271 44.9743,29.3604 50.5,29.5C 50.5751,32.2062 50.9084,34.8728 51.5,37.5 Z"/></g>
<g><path style="opacity:1" fill="#fce7e4" d="M 52.5,38.5 C 58.8597,37.1814 63.5264,39.3481 66.5,45C 63.8494,45.1534 61.5161,45.9867 59.5,47.5C 55.8993,46.5367 52.2326,45.87 48.5,45.5C 48.9613,42.6967 50.2947,40.3634 52.5,38.5 Z"/></g>
<g><path style="opacity:1" fill="#fde8e5" d="M 38.5,40.5 C 40.305,43.9334 42.6383,46.9334 45.5,49.5C 39.3324,52.9999 34.499,51.6666 31,45.5C 30.3333,43.1667 30.3333,40.8333 31,38.5C 33.1354,40.2785 35.6354,40.9452 38.5,40.5 Z"/></g>
<g><path style="opacity:1" fill="#e24a33" d="M 41.5,37.5 C 41.3398,39.1992 41.5065,40.8659 42,42.5C 44.8599,48.0973 46.5266,47.764 47,41.5C 49.0188,40.6426 50.5188,39.3092 51.5,37.5C 51.5,38.1667 51.8333,38.5 52.5,38.5C 50.2947,40.3634 48.9613,42.6967 48.5,45.5C 52.2326,45.87 55.8993,46.5367 59.5,47.5C 58.791,48.404 57.791,48.7373 56.5,48.5C 54.2181,47.6103 51.8848,47.4436 49.5,48C 51.6028,50.923 51.9362,54.0897 50.5,57.5C 49.6618,57.1583 49.3284,56.4916 49.5,55.5C 49.6602,53.8008 49.4935,52.1341 49,50.5C 48.2303,49.4019 47.397,49.4019 46.5,50.5C 46.5,49.8333 46.1667,49.5 45.5,49.5C 42.6383,46.9334 40.305,43.9334 38.5,40.5C 39.8999,39.9002 40.8999,38.9002 41.5,37.5 Z"/></g>
<g><path style="opacity:1" fill="#fdebe9" d="M 56.5,48.5 C 60.6496,53.9694 60.4829,59.3028 56,64.5C 54.3335,62.0043 52.5002,59.671 50.5,57.5C 51.9362,54.0897 51.6028,50.923 49.5,48C 51.8848,47.4436 54.2181,47.6103 56.5,48.5 Z"/></g>
<g><path style="opacity:1" fill="#fce7e3" d="M 49.5,55.5 C 45.9362,61.7993 40.9362,63.466 34.5,60.5C 36.0022,54.8279 39.6689,51.9945 45.5,52C 46.056,51.6174 46.3893,51.1174 46.5,50.5C 47.397,49.4019 48.2303,49.4019 49,50.5C 49.4935,52.1341 49.6602,53.8008 49.5,55.5 Z"/></g>
</svg>
