<?xml version="1.0" encoding="UTF-8"?>
<!DOCTYPE svg PUBLIC "-//W3C//DTD SVG 1.1//EN" "http://www.w3.org/Graphics/SVG/1.1/DTD/svg11.dtd">
<svg xmlns="http://www.w3.org/2000/svg" version="1.1" width="96px" height="96px" style="shape-rendering:geometricPrecision; text-rendering:geometricPrecision; image-rendering:optimizeQuality; fill-rule:evenodd; clip-rule:evenodd" xmlns:xlink="http://www.w3.org/1999/xlink">
<g><path style="opacity:1" fill="#eee1e9" d="M 0.5,24.5 C 2.16667,24.5 3.83333,24.5 5.5,24.5C 10.0173,26.6762 14.5173,29.0096 19,31.5C 19.4966,29.1902 19.6633,26.8568 19.5,24.5C 20.1667,24.5 20.8333,24.5 21.5,24.5C 21.5,27.8333 21.5,31.1667 21.5,34.5C 14.1667,34.5 6.83333,34.5 -0.5,34.5C -0.5,33.8333 -0.5,33.1667 -0.5,32.5C 2.7131,32.81 5.7131,32.4767 8.5,31.5C 10.4546,32.3235 12.4546,32.4901 14.5,32C 9.6126,29.7258 4.94593,27.2258 0.5,24.5 Z"/></g>
<g><path style="opacity:1" fill="#0a2675" d="M 5.5,24.5 C 10.1667,24.5 14.8333,24.5 19.5,24.5C 19.6633,26.8568 19.4966,29.1902 19,31.5C 14.5173,29.0096 10.0173,26.6762 5.5,24.5 Z"/></g>
<g><path style="opacity:1" fill="#e11b3c" d="M 21.5,24.5 C 23.1667,24.5 24.8333,24.5 26.5,24.5C 26.5,27.8333 26.5,31.1667 26.5,34.5C 33.5,34.5 40.5,34.5 47.5,34.5C 47.5,36.1667 47.5,37.8333 47.5,39.5C 40.5,39.5 33.5,39.5 26.5,39.5C 26.5,42.5 26.5,45.5 26.5,48.5C 24.8333,48.5 23.1667,48.5 21.5,48.5C 21.5,45.5 21.5,42.5 21.5,39.5C 14.1667,39.5 6.83333,39.5 -0.5,39.5C -0.5,37.8333 -0.5,36.1667 -0.5,34.5C 6.83333,34.5 14.1667,34.5 21.5,34.5C 21.5,31.1667 21.5,27.8333 21.5,24.5 Z"/></g>
<g><path style="opacity:1" fill="#1e327e" d="M 27.5,24.5 C 32.1667,24.5 36.8333,24.5 41.5,24.5C 41.5,24.8333 41.5,25.1667 41.5,25.5C 39.6203,25.2291 38.287,25.8958 37.5,27.5C 34.5229,28.3218 31.8563,29.6552 29.5,31.5C 27.6565,29.7211 26.9898,27.3878 27.5,24.5 Z"/></g>
<g><path style="opacity:1" fill="#042776" d="M 47.5,24.5 C 63.5,24.5 79.5,24.5 95.5,24.5C 95.5,40.8333 95.5,57.1667 95.5,73.5C 63.5,73.5 31.5,73.5 -0.5,73.5C -0.5,65.1667 -0.5,56.8333 -0.5,48.5C 0.166667,48.5 0.833333,48.5 1.5,48.5C 2.16667,48.5 2.83333,48.5 3.5,48.5C 3.55999,49.0431 3.89333,49.3764 4.5,49.5C 6.59757,49.0428 8.26424,48.0428 9.5,46.5C 11.8185,46.0075 13.8185,45.0075 15.5,43.5C 16.5,42.8333 17.5,42.1667 18.5,41.5C 19.1657,44.0277 19.8324,46.6944 20.5,49.5C 21.1067,49.3764 21.44,49.0431 21.5,48.5C 23.1667,48.5 24.8333,48.5 26.5,48.5C 27.1653,46.3021 27.8319,43.9688 28.5,41.5C 33.0077,44.2545 37.6743,46.7545 42.5,49C 44.3869,49.7796 46.0536,49.6129 47.5,48.5C 47.7148,46.8212 47.0481,45.8212 45.5,45.5C 44.5475,43.39 42.8808,42.2233 40.5,42C 43.3647,41.8171 46.0314,41.3171 48.5,40.5C 48.5,39.8333 48.1667,39.5 47.5,39.5C 47.5,37.8333 47.5,36.1667 47.5,34.5C 48.0431,34.44 48.3764,34.1067 48.5,33.5C 45.2152,32.6764 41.8818,32.1764 38.5,32C 41.1667,30.6667 43.8333,29.3333 46.5,28C 47.2524,27.3292 47.5858,26.4959 47.5,25.5C 47.5,25.1667 47.5,24.8333 47.5,24.5 Z"/></g>
<g><path style="opacity:1" fill="#dbbbcc" d="M -0.5,27.5 C -0.5,27.1667 -0.5,26.8333 -0.5,26.5C 1.02694,26.427 2.02694,27.0937 2.5,28.5C 1.39105,28.4431 0.391047,28.1098 -0.5,27.5 Z"/></g>
<g><path style="opacity:1" fill="#e94a5b" d="M -0.5,24.5 C -0.166667,24.5 0.166667,24.5 0.5,24.5C 4.94593,27.2258 9.6126,29.7258 14.5,32C 12.4546,32.4901 10.4546,32.3235 8.5,31.5C 6.74542,30.0956 4.74542,29.0956 2.5,28.5C 2.02694,27.0937 1.02694,26.427 -0.5,26.5C -0.5,25.8333 -0.5,25.1667 -0.5,24.5 Z"/></g>
<g><path style="opacity:1" fill="#343c84" d="M -0.5,27.5 C 0.391047,28.1098 1.39105,28.4431 2.5,28.5C 4.74542,29.0956 6.74542,30.0956 8.5,31.5C 5.7131,32.4767 2.7131,32.81 -0.5,32.5C -0.5,30.8333 -0.5,29.1667 -0.5,27.5 Z"/></g>
<g><path style="opacity:1" fill="#ea515e" d="M 41.5,24.5 C 43.5,24.5 45.5,24.5 47.5,24.5C 47.5,24.8333 47.5,25.1667 47.5,25.5C 42.7657,27.365 38.099,29.5317 33.5,32C 31.9343,32.765 30.6009,32.5983 29.5,31.5C 31.8563,29.6552 34.5229,28.3218 37.5,27.5C 39.153,27.3404 40.4863,26.6737 41.5,25.5C 41.5,25.1667 41.5,24.8333 41.5,24.5 Z"/></g>
<g><path style="opacity:1" fill="#d1d7e6" d="M 71.5,29.5 C 75.4292,31.6069 75.2625,33.6069 71,35.5C 69.6321,33.973 69.1321,32.473 69.5,31C 70.4158,30.7216 71.0825,30.2216 71.5,29.5 Z"/></g>
<g><path style="opacity:1" fill="#f5dee5" d="M 26.5,24.5 C 26.8333,24.5 27.1667,24.5 27.5,24.5C 26.9898,27.3878 27.6565,29.7211 29.5,31.5C 30.6009,32.5983 31.9343,32.765 33.5,32C 38.099,29.5317 42.7657,27.365 47.5,25.5C 47.5858,26.4959 47.2524,27.3292 46.5,28C 43.8333,29.3333 41.1667,30.6667 38.5,32C 41.8818,32.1764 45.2152,32.6764 48.5,33.5C 48.3764,34.1067 48.0431,34.44 47.5,34.5C 40.5,34.5 33.5,34.5 26.5,34.5C 26.5,31.1667 26.5,27.8333 26.5,24.5 Z"/></g>
<g><path style="opacity:1" fill="#cca8c0" d="M 41.5,25.5 C 40.4863,26.6737 39.153,27.3404 37.5,27.5C 38.287,25.8958 39.6203,25.2291 41.5,25.5 Z"/></g>
<g><path style="opacity:1" fill="#f4ebf0" d="M -0.5,40.5 C -0.5,40.1667 -0.5,39.8333 -0.5,39.5C 6.83333,39.5 14.1667,39.5 21.5,39.5C 21.5,42.5 21.5,45.5 21.5,48.5C 21.44,49.0431 21.1067,49.3764 20.5,49.5C 19.8324,46.6944 19.1657,44.0277 18.5,41.5C 17.3991,40.4017 16.0657,40.235 14.5,41C 10.1039,43.5269 5.77054,46.0269 1.5,48.5C 0.833333,48.5 0.166667,48.5 -0.5,48.5C -0.5,47.5 -0.5,46.5 -0.5,45.5C 2.16667,44.5 4.83333,43.5 7.5,42.5C 8.28913,42.2172 8.9558,41.7172 9.5,41C 6.18323,40.5017 2.8499,40.335 -0.5,40.5 Z"/></g>
<g><path style="opacity:1" fill="#efedf3" d="M 47.5,39.5 C 48.1667,39.5 48.5,39.8333 48.5,40.5C 45.1501,40.335 41.8168,40.5017 38.5,41C 39.056,41.3826 39.3893,41.8826 39.5,42.5C 37.8439,41.8535 36.1772,41.1869 34.5,40.5C 32.6274,40.4823 32.2941,40.9823 33.5,42C 38.3026,43.9937 42.9692,46.1604 47.5,48.5C 46.0536,49.6129 44.3869,49.7796 42.5,49C 37.6743,46.7545 33.0077,44.2545 28.5,41.5C 27.8319,43.9688 27.1653,46.3021 26.5,48.5C 26.5,45.5 26.5,42.5 26.5,39.5C 33.5,39.5 40.5,39.5 47.5,39.5 Z"/></g>
<g><path style="opacity:1" fill="#4f699f" d="M -0.5,41.5 C -0.5,41.1667 -0.5,40.8333 -0.5,40.5C 2.8499,40.335 6.18323,40.5017 9.5,41C 8.9558,41.7172 8.28913,42.2172 7.5,42.5C 5.0521,41.5269 2.38544,41.1936 -0.5,41.5 Z"/></g>
<g><path style="opacity:1" fill="#6e75a7" d="M 48.5,40.5 C 46.0314,41.3171 43.3647,41.8171 40.5,42C 42.8808,42.2233 44.5475,43.39 45.5,45.5C 43.1815,45.0075 41.1815,44.0075 39.5,42.5C 39.3893,41.8826 39.056,41.3826 38.5,41C 41.8168,40.5017 45.1501,40.335 48.5,40.5 Z"/></g>
<g><path style="opacity:1" fill="#d3d8e7" d="M 82.5,39.5 C 85.8944,40.6971 86.3944,42.6971 84,45.5C 83.3333,44.1667 82.6667,44.1667 82,45.5C 79.9087,43.1697 80.0754,41.1697 82.5,39.5 Z"/></g>
<g><path style="opacity:1" fill="#032373" d="M -0.5,41.5 C 2.38544,41.1936 5.0521,41.5269 7.5,42.5C 4.83333,43.5 2.16667,44.5 -0.5,45.5C -0.5,44.1667 -0.5,42.8333 -0.5,41.5 Z"/></g>
<g><path style="opacity:1" fill="#eb4a5c" d="M 39.5,42.5 C 41.1815,44.0075 43.1815,45.0075 45.5,45.5C 47.0481,45.8212 47.7148,46.8212 47.5,48.5C 42.9692,46.1604 38.3026,43.9937 33.5,42C 32.2941,40.9823 32.6274,40.4823 34.5,40.5C 36.1772,41.1869 37.8439,41.8535 39.5,42.5 Z"/></g>
<g><path style="opacity:1" fill="#b6a9c4" d="M 15.5,43.5 C 13.8185,45.0075 11.8185,46.0075 9.5,46.5C 10.911,44.461 12.911,43.461 15.5,43.5 Z"/></g>
<g><path style="opacity:1" fill="#e83148" d="M 18.5,41.5 C 17.5,42.1667 16.5,42.8333 15.5,43.5C 12.911,43.461 10.911,44.461 9.5,46.5C 7.29719,46.6036 5.29719,47.2702 3.5,48.5C 2.83333,48.5 2.16667,48.5 1.5,48.5C 5.77054,46.0269 10.1039,43.5269 14.5,41C 16.0657,40.235 17.3991,40.4017 18.5,41.5 Z"/></g>
<g><path style="opacity:1" fill="#f6f7fa" d="M 59.5,43.5 C 61.1042,44.287 61.7709,45.6203 61.5,47.5C 58.6643,47.1627 57.9976,45.8293 59.5,43.5 Z"/></g>
<g><path style="opacity:1" fill="#837caa" d="M 9.5,46.5 C 8.26424,48.0428 6.59757,49.0428 4.5,49.5C 3.89333,49.3764 3.55999,49.0431 3.5,48.5C 5.29719,47.2702 7.29719,46.6036 9.5,46.5 Z"/></g>
<g><path style="opacity:1" fill="#8f9fc2" d="M 59.5,43.5 C 57.9976,45.8293 58.6643,47.1627 61.5,47.5C 59.3161,48.9829 57.9827,48.3163 57.5,45.5C 57.7472,44.2867 58.4138,43.62 59.5,43.5 Z"/></g>
<g><path style="opacity:1" fill="#acb7d2" d="M 75.5,49.5 C 76.5,49.5 77.5,49.5 78.5,49.5C 78.5,50.5 78.5,51.5 78.5,52.5C 77.5,52.5 76.5,52.5 75.5,52.5C 75.5,51.5 75.5,50.5 75.5,49.5 Z"/></g>
<g><path style="opacity:1" fill="#dfe3ed" d="M 23.5,54.5 C 24.404,55.209 24.7373,56.209 24.5,57.5C 27.5225,57.1052 28.5225,58.1052 27.5,60.5C 31.4436,62.4041 31.1103,63.4041 26.5,63.5C 26.741,66.999 25.9076,67.3323 24,64.5C 21.2771,68.7557 20.1104,68.4224 20.5,63.5C 19.325,63.719 18.325,63.3857 17.5,62.5C 20.6186,61.3064 20.9519,59.8064 18.5,58C 20.9357,57.7935 22.6024,56.6269 23.5,54.5 Z"/></g>
<g><path style="opacity:1" fill="#ccd3e3" d="M 71.5,62.5 C 76.8188,64.9802 76.6521,66.9802 71,68.5C 69.4097,66.4955 69.5764,64.4955 71.5,62.5 Z"/></g>
</svg>
