<?xml version="1.0" encoding="UTF-8"?>
<!DOCTYPE svg PUBLIC "-//W3C//DTD SVG 1.1//EN" "http://www.w3.org/Graphics/SVG/1.1/DTD/svg11.dtd">
<svg xmlns="http://www.w3.org/2000/svg" version="1.1" width="96px" height="96px" style="shape-rendering:geometricPrecision; text-rendering:geometricPrecision; image-rendering:optimizeQuality; fill-rule:evenodd; clip-rule:evenodd" xmlns:xlink="http://www.w3.org/1999/xlink">
<g><path style="opacity:0.999" fill="#b12234" d="M 37.5,22.5 C 56.8333,22.5 76.1667,22.5 95.5,22.5C 95.5,23.8333 95.5,25.1667 95.5,26.5C 76.5,26.5 57.5,26.5 38.5,26.5C 38.1667,26.5 37.8333,26.5 37.5,26.5C 37.5,25.1667 37.5,23.8333 37.5,22.5 Z"/></g>
<g><path style="opacity:1" fill="#fdfcfc" d="M 38.5,26.5 C 57.5,26.5 76.5,26.5 95.5,26.5C 95.5,27.5 95.5,28.5 95.5,29.5C 76.5,29.5 57.5,29.5 38.5,29.5C 38.5,28.5 38.5,27.5 38.5,26.5 Z"/></g>
<g><path style="opacity:1" fill="#edd6da" d="M 37.5,26.5 C 37.8333,26.5 38.1667,26.5 38.5,26.5C 38.5,27.5 38.5,28.5 38.5,29.5C 57.5,29.5 76.5,29.5 95.5,29.5C 95.5,29.8333 95.5,30.1667 95.5,30.5C 76.5,30.5 57.5,30.5 38.5,30.5C 38.1667,30.5 37.8333,30.5 37.5,30.5C 37.5,29.1667 37.5,27.8333 37.5,26.5 Z"/></g>
<g><path style="opacity:1" fill="#b32637" d="M 38.5,30.5 C 57.5,30.5 76.5,30.5 95.5,30.5C 95.5,31.5 95.5,32.5 95.5,33.5C 76.5,33.5 57.5,33.5 38.5,33.5C 38.5,32.5 38.5,31.5 38.5,30.5 Z"/></g>
<g><path style="opacity:1" fill="#c45f6d" d="M 37.5,30.5 C 37.8333,30.5 38.1667,30.5 38.5,30.5C 38.5,31.5 38.5,32.5 38.5,33.5C 57.5,33.5 76.5,33.5 95.5,33.5C 95.5,33.8333 95.5,34.1667 95.5,34.5C 76.5,34.5 57.5,34.5 38.5,34.5C 38.1667,34.5 37.8333,34.5 37.5,34.5C 37.5,33.1667 37.5,31.8333 37.5,30.5 Z"/></g>
<g><path style="opacity:1" fill="#fdfafb" d="M 38.5,34.5 C 57.5,34.5 76.5,34.5 95.5,34.5C 95.5,35.5 95.5,36.5 95.5,37.5C 76.5,37.5 57.5,37.5 38.5,37.5C 38.5,36.5 38.5,35.5 38.5,34.5 Z"/></g>
<g><path style="opacity:1" fill="#dea8b0" d="M 37.5,34.5 C 37.8333,34.5 38.1667,34.5 38.5,34.5C 38.5,35.5 38.5,36.5 38.5,37.5C 57.5,37.5 76.5,37.5 95.5,37.5C 95.5,37.8333 95.5,38.1667 95.5,38.5C 76.1667,38.5 56.8333,38.5 37.5,38.5C 37.5,37.1667 37.5,35.8333 37.5,34.5 Z"/></g>
<g><path style="opacity:1" fill="#ba3c47" d="M 37.5,38.5 C 56.8333,38.5 76.1667,38.5 95.5,38.5C 95.5,39.8333 95.5,41.1667 95.5,42.5C 76.1667,42.5 56.8333,42.5 37.5,42.5C 37.5,41.1667 37.5,39.8333 37.5,38.5 Z"/></g>
<g><path style="opacity:1" fill="#f7e7e9" d="M 37.5,42.5 C 56.8333,42.5 76.1667,42.5 95.5,42.5C 95.5,43.8333 95.5,45.1667 95.5,46.5C 76.1667,46.5 56.8333,46.5 37.5,46.5C 37.5,45.1667 37.5,43.8333 37.5,42.5 Z"/></g>
<g><path style="opacity:1" fill="#474373" d="M -0.5,22.5 C 12.1667,22.5 24.8333,22.5 37.5,22.5C 37.5,23.8333 37.5,25.1667 37.5,26.5C 37.5,27.8333 37.5,29.1667 37.5,30.5C 37.5,31.8333 37.5,33.1667 37.5,34.5C 37.5,35.8333 37.5,37.1667 37.5,38.5C 37.5,39.8333 37.5,41.1667 37.5,42.5C 37.5,43.8333 37.5,45.1667 37.5,46.5C 37.5,47.5 37.5,48.5 37.5,49.5C 25.011,50.4954 12.3443,50.8287 -0.5,50.5C -0.5,41.1667 -0.5,31.8333 -0.5,22.5 Z"/></g>
<g><path style="opacity:1" fill="#5c5a85" d="M 33.5,37.5 C 34.1079,38.7997 34.7745,40.1331 35.5,41.5C 33.8424,44.4568 31.5091,46.7901 28.5,48.5C 28.1667,48 27.8333,47.5 27.5,47C 30.0233,45.0888 30.0233,43.2555 27.5,41.5C 28.1667,40.8333 28.8333,40.1667 29.5,39.5C 27.5,39.5 25.5,39.5 23.5,39.5C 24.2634,38.2807 25.2634,37.2807 26.5,36.5C 25.635,35.4173 24.635,35.2506 23.5,36C 21.5805,37.7727 19.5805,39.2727 17.5,40.5C 19.1362,42.8871 21.1362,45.0538 23.5,47C 22.9747,47.6924 22.3081,48.1924 21.5,48.5C 19.8259,46.4867 17.8259,44.8201 15.5,43.5C 13.7334,45.8901 11.4001,47.5568 8.5,48.5C 7.74917,47.624 7.24917,46.624 7,45.5C 5.18703,46.6091 4.35369,45.9424 4.5,43.5C 5.5,43.5 6.5,43.5 7.5,43.5C 7.5,42.5 7.5,41.5 7.5,40.5C 5.38115,40.5323 4.04782,39.5323 3.5,37.5C 3.5,36.8333 3.5,36.1667 3.5,35.5C 4.04309,35.44 4.37642,35.1067 4.5,34.5C 2.98519,33.4095 2.15185,32.0761 2,30.5C 2.66667,29.1667 3.33333,29.1667 4,30.5C 5.00664,27.2462 7.1733,25.2462 10.5,24.5C 10.3505,25.552 10.5172,26.552 11,27.5C 12.3287,26.5061 13.662,25.5061 15,24.5C 16.0921,25.2961 17.2588,25.9628 18.5,26.5C 20.0356,25.7515 21.3689,24.7515 22.5,23.5C 23.3857,24.325 23.719,25.325 23.5,26.5C 25.5,25.8333 27.5,25.1667 29.5,24.5C 29.5,25.5 29.5,26.5 29.5,27.5C 33.5,28.1667 33.5,28.8333 29.5,29.5C 29.3505,30.552 29.5172,31.552 30,32.5C 31.586,31.624 33.086,30.624 34.5,29.5C 34.8333,30 35.1667,30.5 35.5,31C 33.7263,33.202 31.7263,35.202 29.5,37C 30.7932,37.49 32.1266,37.6567 33.5,37.5 Z"/></g>
<g><path style="opacity:1" fill="#afaec3" d="M 14.5,40.5 C 15.1667,40.5 15.8333,40.5 16.5,40.5C 15.8333,43.1667 15.1667,43.1667 14.5,40.5 Z"/></g>
<g><path style="opacity:1" fill="#a9a8bf" d="M 1.5,40.5 C 3.33702,40.6395 3.67036,41.3061 2.5,42.5C 1.70245,42.0431 1.36912,41.3764 1.5,40.5 Z"/></g>
<g><path style="opacity:1" fill="#a8a7be" d="M 33.5,37.5 C 33.6395,35.663 34.3061,35.3296 35.5,36.5C 35.0431,37.2975 34.3764,37.6309 33.5,37.5 Z"/></g>
<g><path style="opacity:1" fill="#aeadc2" d="M 16.5,35.5 C 16.6716,36.4916 16.3382,37.1583 15.5,37.5C 14.2426,36.3774 14.5759,35.7107 16.5,35.5 Z"/></g>
<g><path style="opacity:1" fill="#b1b0c5" d="M 3.5,35.5 C 3.5,36.1667 3.5,36.8333 3.5,37.5C 0.833333,36.8333 0.833333,36.1667 3.5,35.5 Z"/></g>
<g><path style="opacity:1" fill="#403f71" d="M 16.5,35.5 C 14.5759,35.7107 14.2426,36.3774 15.5,37.5C 16.1667,38.5 16.8333,39.5 17.5,40.5C 17.1667,40.5 16.8333,40.5 16.5,40.5C 15.8333,40.5 15.1667,40.5 14.5,40.5C 13.596,39.791 13.2627,38.791 13.5,37.5C 12.448,37.6495 11.448,37.4828 10.5,37C 12.4386,36.0922 13.4386,34.5922 13.5,32.5C 12.5,32.5 11.5,32.5 10.5,32.5C 10.5,33.5 10.5,34.5 10.5,35.5C 9.5,35.5 8.5,35.5 7.5,35.5C 8.39701,31.9354 10.7303,29.602 14.5,28.5C 15.2913,29.0656 15.2913,29.899 14.5,31C 15.5089,32.1681 16.5089,33.3348 17.5,34.5C 17.3764,35.1067 17.0431,35.44 16.5,35.5 Z"/></g>
<g><path style="opacity:1" fill="#a3a2bb" d="M 33.5,24.5 C 35.337,24.6395 35.6704,25.3061 34.5,26.5C 33.7025,26.0431 33.3691,25.3764 33.5,24.5 Z"/></g>
<g><path style="opacity:1" fill="#aaa9c0" d="M 1.5,24.5 C 3.33702,24.6395 3.67036,25.3061 2.5,26.5C 1.70245,26.0431 1.36912,25.3764 1.5,24.5 Z"/></g>
<g><path style="opacity:1" fill="#b12234" d="M 37.5,46.5 C 56.8333,46.5 76.1667,46.5 95.5,46.5C 95.5,47.5 95.5,48.5 95.5,49.5C 76.1667,49.5 56.8333,49.5 37.5,49.5C 37.5,48.5 37.5,47.5 37.5,46.5 Z"/></g>
<g><path style="opacity:1" fill="#a4a4bb" d="M 1.5,46.5 C 3.33702,46.6395 3.67036,47.3061 2.5,48.5C 1.70245,48.0431 1.36912,47.3764 1.5,46.5 Z"/></g>
<g><path style="opacity:1" fill="#a1a0b9" d="M 14.5,46.5 C 16.337,46.6395 16.6704,47.3061 15.5,48.5C 14.7025,48.0431 14.3691,47.3764 14.5,46.5 Z"/></g>
<g><path style="opacity:1" fill="#faeef0" d="M 37.5,49.5 C 56.8333,49.5 76.1667,49.5 95.5,49.5C 95.5,50.8333 95.5,52.1667 95.5,53.5C 63.5,53.5 31.5,53.5 -0.5,53.5C -0.5,52.5 -0.5,51.5 -0.5,50.5C 12.3443,50.8287 25.011,50.4954 37.5,49.5 Z"/></g>
<g><path style="opacity:1" fill="#bb3c47" d="M -0.5,53.5 C 31.5,53.5 63.5,53.5 95.5,53.5C 95.5,54.8333 95.5,56.1667 95.5,57.5C 63.5,57.5 31.5,57.5 -0.5,57.5C -0.5,56.1667 -0.5,54.8333 -0.5,53.5 Z"/></g>
<g><path style="opacity:1" fill="#f8eaeb" d="M -0.5,57.5 C 31.5,57.5 63.5,57.5 95.5,57.5C 95.5,58.8333 95.5,60.1667 95.5,61.5C 63.5,61.5 31.5,61.5 -0.5,61.5C -0.5,60.1667 -0.5,58.8333 -0.5,57.5 Z"/></g>
<g><path style="opacity:1" fill="#b83542" d="M -0.5,61.5 C 31.5,61.5 63.5,61.5 95.5,61.5C 95.5,62.8333 95.5,64.1667 95.5,65.5C 63.5,65.5 31.5,65.5 -0.5,65.5C -0.5,64.1667 -0.5,62.8333 -0.5,61.5 Z"/></g>
<g><path style="opacity:1" fill="#fbf4f5" d="M -0.5,65.5 C 31.5,65.5 63.5,65.5 95.5,65.5C 95.5,66.8333 95.5,68.1667 95.5,69.5C 63.5,69.5 31.5,69.5 -0.5,69.5C -0.5,68.1667 -0.5,66.8333 -0.5,65.5 Z"/></g>
<g><path style="opacity:1" fill="#b22334" d="M -0.5,69.5 C 31.5,69.5 63.5,69.5 95.5,69.5C 95.5,70.8333 95.5,72.1667 95.5,73.5C 63.5,73.5 31.5,73.5 -0.5,73.5C -0.5,72.1667 -0.5,70.8333 -0.5,69.5 Z"/></g>
</svg>
